<?xml version="1.0" encoding="UTF-8" standalone="no"?><!DOCTYPE svg PUBLIC "-//W3C//DTD SVG 1.1//EN" "http://www.w3.org/Graphics/SVG/1.1/DTD/svg11.dtd"><svg width="158" height="35" viewBox="0 0 158 35" version="1.1" xmlns="http://www.w3.org/2000/svg" xmlns:xlink="http://www.w3.org/1999/xlink"><g id="Logo"><path d="M74,1l0,28l6.379,0l0,-7.046l4.937,7.046l7.684,0l-7.038,-9.998l6.822,-9.556l-7.687,0l-4.718,6.613l0,-15.059l-6.379,0Z" style="fill:#fff;"/><path d="M157.794,15.337l0,13.503l-6.288,0l0,-13.355c0,-1.362 -1.156,-2.472 -2.572,-2.472c-1.426,0 -2.582,1.11 -2.582,2.472l0,13.355l-6.289,0l0,-28.067l6.289,0l0,9.09c1.202,-0.863 2.693,-1.379 4.304,-1.379c3.944,0 7.138,3.066 7.138,6.853Z" style="fill:#fff;"/><path d="M62.89,9.243l0,0.969c-1.709,-1.058 -3.739,-1.679 -5.926,-1.679c-6.044,0 -10.944,4.704 -10.944,10.506c0,5.802 4.9,10.506 10.944,10.506c2.187,0 4.217,-0.622 5.926,-1.682l0,1.023l6.285,0l0,-19.643l-6.285,0Zm-5.006,14.912c-3.081,0 -5.576,-2.398 -5.576,-5.353c0,-2.958 2.495,-5.353 5.576,-5.353c3.078,0 5.576,2.395 5.576,5.353c0,2.955 -2.498,5.353 -5.576,5.353Z" style="fill:#fff;"/><path d="M108.304,9.243l0,0.969c-1.709,-1.058 -3.739,-1.679 -5.926,-1.679c-6.044,0 -10.945,4.704 -10.945,10.506c0,5.802 4.901,10.506 10.945,10.506c2.187,0 4.217,-0.622 5.926,-1.682l0,1.023l6.285,0l0,-19.643l-6.285,0Zm-5.006,14.912c-3.081,0 -5.576,-2.398 -5.576,-5.353c0,-2.958 2.495,-5.353 5.576,-5.353c3.078,0 5.576,2.395 5.576,5.353c0,2.955 -2.498,5.353 -5.576,5.353Z" style="fill:#fff;"/><path d="M123.77,22.502c0.028,0.402 0.139,0.745 0.329,1.019c0.2,0.288 0.462,0.525 0.778,0.705c0.34,0.193 0.738,0.336 1.188,0.427c0.472,0.096 0.966,0.146 1.469,0.146c1.134,0 1.987,-0.166 2.539,-0.489c0.465,-0.274 0.674,-0.565 0.674,-0.949c0,-0.178 -0.039,-0.324 -0.116,-0.445c-0.044,-0.071 -0.17,-0.217 -0.506,-0.397c-0.316,-0.17 -0.753,-0.333 -1.301,-0.481c-0.575,-0.158 -1.323,-0.32 -2.222,-0.483c-1.195,-0.227 -2.305,-0.521 -3.302,-0.866c-1.018,-0.355 -1.907,-0.794 -2.639,-1.303c-0.761,-0.53 -1.365,-1.149 -1.797,-1.847c-0.447,-0.723 -0.675,-1.559 -0.675,-2.487c0,-0.89 0.226,-1.754 0.668,-2.563c0.436,-0.799 1.069,-1.51 1.881,-2.104c0.794,-0.585 1.767,-1.053 2.896,-1.394c1.115,-0.335 2.384,-0.506 3.772,-0.506c1.447,0 2.767,0.166 3.927,0.494c1.176,0.333 2.194,0.802 3.021,1.391c0.846,0.604 1.504,1.337 1.953,2.176c0.455,0.844 0.684,1.769 0.684,2.753l-6.465,0c0,-0.553 -0.221,-0.987 -0.697,-1.367c-0.501,-0.399 -1.316,-0.602 -2.423,-0.602c-1.041,0 -1.819,0.168 -2.308,0.501c-0.429,0.291 -0.627,0.604 -0.627,0.992c0,0.182 0.039,0.348 0.116,0.503c0.067,0.131 0.206,0.264 0.414,0.395c0.257,0.16 0.632,0.313 1.112,0.454c0.509,0.15 1.17,0.283 1.961,0.392c1.234,0.195 2.39,0.444 3.446,0.747c1.09,0.311 2.046,0.721 2.845,1.216c0.83,0.516 1.49,1.157 1.966,1.902c0.488,0.765 0.734,1.68 0.734,2.716c0,0.958 -0.244,1.853 -0.724,2.662c-0.473,0.794 -1.146,1.488 -2.007,2.057c-0.838,0.558 -1.858,0.997 -3.032,1.303c-1.157,0.303 -2.462,0.456 -3.878,0.456c-1.565,0 -2.973,-0.202 -4.186,-0.599c-1.218,-0.402 -2.256,-0.935 -3.089,-1.589c-0.845,-0.663 -1.495,-1.431 -1.935,-2.282c-0.444,-0.856 -0.668,-1.734 -0.668,-2.61l6.224,-0.044Z" style="fill:#fff;"/><path d="M13,0l20.255,35l6.745,-11.668l-13.5,-23.332l-13.5,0Z" style="fill:#f34c2d;"/><path d="M13,24l7.005,11l13.995,0l-6.995,-11l-14.005,0Z" style="fill:#be312d;"/><path d="M7,11l-7,12l7.005,12l13.995,-24l-14,0Z" style="fill:#f34c2d;"/></g></svg>